Simulation
nRows=19
nColumns=15
endheader
time  TH_x TH_y TH_z SC_y  SC_z  SC_x  AC_y  AC_z  AC_x  GH_y  GH_z  GH_yy  EL_x  PS_y
0.0  0.000000  0.000000  0.000000  -21.481868867639264  5.049554904903947  1.5763508600500706  46.468456636897905  2.5832666792841796  0.23463898299199187  -2.961517587555432  2.1656239402848327  50.61148136263907  20.890912609311926  120.000000
0.03574666666666667  0.000000  0.000000  0.000000  -21.70061437276889  5.187008582763335  1.5460768326689505  46.620633374770925  2.6811913777782275  0.6633886531101036  -17.585531119825834  3.884786764164758  65.00798853392416  20.380780255271926  120.000000
0.07149333333333334  0.000000  0.000000  0.000000  -21.919285818331126  5.2254167484722815  1.5192857657387315  46.812020852065324  2.6799860730567637  1.1233456127838501  -22.54559097022044  5.572163859290581  69.53388116127687  19.909106630554067  120.000000
0.10724  0.000000  0.000000  0.000000  -22.153672668766806  5.195779019573369  1.4836770823516772  47.0713888610969  2.611134978915363  1.5778705552405805  -24.54779421100651  7.15364602780437  70.87586241667235  19.461013990993866  120.000000
0.14298666666666668  0.000000  0.000000  0.000000  -22.421188450937443  5.135165837935515  1.4271749614959799  47.40504116420608  2.517365802681602  1.9913927433183929  -25.243137584252633  8.637906418792682  70.66978151966813  19.018717529686718  120.000000
0.17873333333333336  0.000000  0.000000  0.000000  -22.74079733944854  5.068578726648111  1.3574983838521195  47.77331779431887  2.4403156740063063  2.3497537377419087  -25.38296265797932  10.077562222009897  69.66374412308122  18.55933192746028  120.000000
0.21448  0.000000  0.000000  0.000000  -23.120501878151426  5.005255712600106  1.295509695004125  48.129398500880775  2.4053593996951794  2.659388319215051  -25.31137743452858  11.527403875448556  68.20801648852036  18.06807771416115  120.000000
0.2502266666666667  0.000000  0.000000  0.000000  -23.551879162663305  4.948869057738305  1.258591412388678  48.455043121695965  2.4215511511493566  2.931425330852958  -25.122190041342407  13.022010586656869  66.41382534654433  17.544105714522214  120.000000
0.28597333333333336  0.000000  0.000000  0.000000  -24.022519926679312  4.908830453116354  1.2548151623549104  48.75121404767976  2.4887430371457744  3.172562564894441  -24.83037430955487  14.58124170160061  64.31908775013764  16.995253322805087  120.000000
0.32172  0.000000  0.000000  0.000000  -24.52333428940244  4.8987164389059155  1.2888112589988  49.02029718411623  2.6024512258329993  3.386895249207614  -24.46488681579135  16.217243380153832  61.97958488735945  16.43052749500599  120.000000
0.3574666666666667  0.000000  0.000000  0.000000  -25.050400340982776  4.93247275813051  1.365132114255269  49.25971778680424  2.7557053493773047  3.5800161124660015  -24.068952076001455  17.936108897593016  59.46807359213661  15.858803477518457  120.000000
0.39321333333333336  0.000000  0.000000  0.000000  -25.601321303401853  5.022780181584129  1.4880528656988277  49.466146860955966  2.940702823469086  3.7580839519483202  -23.692343869637945  19.73668968344794  56.86573094218992  15.28871675194058  120.000000
0.42896  0.000000  0.000000  0.000000  -26.174917227538657  5.180724837994977  1.6628083392461124  49.637315872802475  3.1496432319056913  3.9259045020984433  -23.38060850912004  21.611595640125174  54.252552244680096  14.728604449521766  120.000000
0.4647066666666667  0.000000  0.000000  0.000000  -26.769396246438802  5.413723441080745  1.8954913851459176  49.77332761228669  3.375617609407565  4.087454006411937  -23.172175293172938  23.548342261145557  51.70111780443494  14.185694776790388  120.000000
0.5004533333333334  0.000000  0.000000  0.000000  -27.382747611319054  5.724693876845769  2.1946044090880785  49.877540581271006  3.613017977200672  4.246147511503979  -23.0933854797225  25.53010654531255  49.27389016471575  13.665611055308602  120.000000
0.5362  0.000000  0.000000  0.000000  -28.011780579166174  6.111389574692127  2.5688593212861015  49.95774139777856  3.856978710888111  4.4048739019646845  -23.155765150891252  27.537535534454513  47.015267997400265  13.172397227550416  120.000000
0.5719466666666667  0.000000  0.000000  0.000000  -28.652951535118504  6.5674199800654245  3.027346633688983  50.025028950646565  4.104909899532148  4.56701932612964  -23.358121037686836  29.54984477612644  44.95693965206044  12.708769905728726  120.000000
0.6076933333333334  0.000000  0.000000  0.000000  -29.301879758316126  7.082622093685576  3.5773627002985102  50.09298269699985  4.355298769929787  4.736041838135459  -23.687009384438554  31.54756788796928  43.11219960591549  12.276554162593225  120.000000
0.64344  0.000000  0.000000  0.000000  -29.954633679738127  7.644526692019659  4.224192811775294  50.17529717891091  4.608261959293572  4.915412175354503  -24.121923801681476  33.5129346172795  41.48442376118263  11.876411908509585  120.000000
